<?xml version="1.0" standalone="no"?>
<!DOCTYPE svg PUBLIC "-//W3C//DTD SVG 20010904//EN"
 "http://www.w3.org/TR/2001/REC-SVG-20010904/DTD/svg10.dtd">
<svg version="1.0" xmlns="http://www.w3.org/2000/svg"
 width="496.000000pt" height="496.000000pt" viewBox="0 0 496.000000 496.000000"
 preserveAspectRatio="xMidYMid meet">
<metadata>
Created by potrace 1.14, written by Peter Selinger 2001-2017
</metadata>
<g transform="translate(0.000000,496.000000) scale(0.100000,-0.100000)"
fill="#000000" stroke="none">
<path d="M3620 4344 c0 -6 5 -15 10 -20 7 -7 6 -11 -5 -11 -8 0 -15 4 -15 8 0
4 -7 10 -16 13 -13 5 -14 4 -6 -7 9 -10 8 -14 -3 -14 -8 0 -15 5 -15 11 0 7
-22 11 -54 11 -30 0 -52 -3 -50 -7 2 -4 0 -9 -6 -13 -5 -3 -10 -1 -10 4 0 15
-27 14 -33 -1 -4 -10 -6 -10 -6 0 -1 6 -8 12 -17 12 -8 0 -12 -5 -9 -11 4 -6
-3 -5 -14 3 -18 11 -23 11 -31 -2 -6 -10 -10 -11 -10 -2 0 6 -7 12 -16 12 -8
0 -12 -5 -8 -11 3 -6 -6 -3 -22 7 -19 13 -25 14 -19 5 6 -11 4 -13 -8 -8 -10
3 -17 2 -17 -3 0 -6 5 -10 12 -10 6 0 8 -3 4 -7 -4 -5 -14 0 -21 10 -8 11 -16
14 -19 8 -4 -5 -15 -8 -26 -6 -11 2 -20 -1 -20 -7 0 -5 7 -8 15 -4 22 8 18 -2
-6 -15 -15 -8 -19 -8 -15 0 4 6 2 11 -4 11 -6 0 -8 5 -4 12 4 6 3 8 -4 5 -5
-4 -8 -17 -5 -30 4 -17 2 -19 -5 -8 -8 11 -14 12 -24 3 -11 -9 -18 -9 -28 1
-8 7 -11 8 -7 1 9 -16 -26 -24 -48 -11 -13 7 -16 6 -11 -2 4 -6 2 -11 -3 -11
-6 0 -11 6 -11 13 0 7 -3 8 -8 2 -4 -5 -18 -10 -32 -10 -14 0 -28 -4 -32 -10
-4 -6 -8 -1 -8 9 0 20 0 20 -15 0 -8 -10 -15 -14 -15 -9 0 6 -19 10 -42 9 -24
-1 -51 3 -62 8 -13 7 -16 7 -12 -1 4 -6 2 -11 -3 -11 -6 0 -11 6 -11 13 0 8
-4 7 -10 -3 -7 -11 -10 -11 -10 -2 0 9 -5 10 -19 2 -12 -6 -22 -6 -25 -1 -4 5
-14 8 -24 6 -9 -1 -25 2 -34 7 -12 6 -18 5 -18 -2 0 -6 -11 -8 -25 -6 -14 3
-25 0 -25 -6 0 -7 -4 -7 -13 1 -10 8 -16 8 -24 0 -11 -11 -37 -14 -158 -20
-27 -1 -56 -7 -64 -13 -12 -9 -13 -8 -7 2 7 11 4 12 -12 3 -15 -8 -22 -8 -25
2 -3 7 -6 5 -6 -5 -1 -10 -6 -18 -12 -18 -5 0 -7 6 -3 13 4 6 -2 4 -13 -6 -11
-9 -22 -14 -26 -11 -3 3 -12 2 -19 -2 -7 -5 -15 -9 -18 -9 -3 -1 -21 -9 -40
-19 -34 -19 -35 -19 -20 0 14 18 14 18 -6 2 -11 -10 -28 -18 -37 -18 -9 0 -17
-5 -17 -12 0 -9 -3 -9 -12 0 -7 7 -17 8 -30 1 -10 -5 -18 -6 -18 -2 0 4 -7 -2
-16 -13 -8 -10 -12 -13 -9 -6 6 11 3 11 -13 1 -12 -7 -18 -17 -15 -23 4 -5 -3
-7 -15 -4 -14 4 -19 2 -15 -8 3 -9 -2 -12 -16 -9 -15 3 -18 0 -14 -13 6 -15 5
-16 -12 -2 -11 9 -16 10 -11 3 4 -8 2 -13 -5 -13 -7 0 -22 -8 -33 -17 -20 -17
-20 -17 -7 0 12 15 12 17 -3 11 -9 -3 -16 -14 -16 -23 0 -14 -2 -14 -10 -1 -9
14 -15 7 -11 -14 1 -5 -5 -4 -13 3 -13 11 -17 10 -22 -3 -4 -10 -13 -15 -20
-12 -8 3 -13 0 -11 -7 1 -7 -5 -12 -13 -12 -8 0 -21 -6 -28 -13 -8 -7 -18 -10
-23 -7 -5 4 -9 2 -9 -3 0 -6 -13 -15 -30 -21 -17 -5 -30 -15 -30 -20 0 -6 -4
-10 -9 -9 -5 2 -17 -6 -26 -17 -9 -11 -14 -13 -10 -5 4 8 -1 6 -10 -5 -9 -11
-19 -19 -23 -17 -3 2 -9 -5 -13 -15 -6 -13 -8 -14 -9 -3 0 9 -6 6 -15 -10 -9
-15 -15 -19 -15 -10 0 12 -3 11 -11 -2 -5 -10 -20 -18 -31 -18 -12 0 -19 -2
-16 -6 8 -8 -94 -110 -106 -106 -6 2 -8 0 -4 -4 9 -8 -29 -44 -46 -44 -6 0 -4
-5 4 -10 13 -8 12 -10 -3 -10 -9 0 -16 -3 -15 -7 2 -5 -6 -18 -17 -29 -50 -53
-75 -83 -75 -89 0 -3 -7 -13 -15 -22 -8 -8 -12 -19 -9 -25 4 -6 3 -9 -2 -6 -5
2 -19 -6 -31 -19 -12 -13 -19 -23 -15 -23 3 0 -4 -7 -16 -16 -12 -8 -19 -20
-16 -26 4 -7 2 -8 -4 -4 -6 4 -20 -2 -32 -14 -11 -11 -22 -20 -25 -20 -3 0
-19 -14 -35 -30 -17 -17 -30 -28 -30 -24 0 4 -26 -20 -59 -54 -45 -47 -61 -58
-70 -49 -9 9 -11 7 -5 -8 4 -11 3 -17 -1 -12 -5 4 -20 -3 -34 -15 -14 -13 -20
-16 -14 -7 10 13 8 15 -17 13 -22 -1 -27 2 -23 14 4 10 2 13 -5 8 -7 -4 -12
-1 -12 9 0 8 -10 20 -22 25 -13 5 -19 9 -15 9 12 1 -49 51 -62 51 -6 0 -11 6
-11 14 0 9 -7 13 -20 11 -11 -2 -20 -1 -20 3 0 12 -114 2 -122 -11 -6 -9 -8
-8 -8 3 0 12 -2 13 -9 1 -5 -7 -13 -11 -19 -7 -6 3 -15 -1 -20 -10 -5 -9 -13
-16 -18 -16 -18 -1 -51 -17 -67 -33 -12 -12 -17 -13 -17 -3 0 7 -7 2 -16 -10
-13 -18 -19 -20 -36 -11 -11 6 -18 7 -14 1 8 -14 -21 -35 -35 -26 -9 5 -10 2
-6 -9 4 -12 -3 -19 -28 -28 -19 -7 -31 -17 -28 -22 3 -5 -6 -2 -19 7 -14 9
-28 13 -31 9 -4 -3 -7 -284 -7 -623 0 -568 1 -619 17 -631 15 -12 16 -12 8 1
-7 12 -6 13 6 4 8 -6 37 -10 64 -8 28 2 58 4 68 4 11 1 15 6 10 13 -5 9 -3 9
8 0 10 -8 19 -9 29 -1 12 8 12 9 -3 4 -11 -4 -16 -2 -11 5 3 6 17 9 30 6 15
-2 25 2 29 12 5 13 7 14 15 1 8 -13 10 -12 10 3 0 14 4 16 19 7 14 -7 22 -7
27 2 4 6 3 8 -4 4 -6 -3 -13 -2 -16 3 -3 5 10 7 29 5 28 -2 33 0 29 14 -3 9 1
6 9 -8 9 -14 13 -29 10 -34 -4 -5 -1 -6 6 -2 6 4 9 11 6 16 -3 5 -1 11 4 14
16 10 0 -69 -17 -81 -9 -7 -12 -13 -7 -13 4 0 0 -10 -11 -22 -10 -12 -13 -18
-6 -14 6 4 12 2 12 -3 0 -6 -8 -11 -17 -11 -9 0 -13 -3 -10 -7 4 -3 2 -12 -4
-20 -6 -7 -9 -13 -6 -13 3 0 0 -12 -8 -27 -8 -15 -12 -30 -9 -35 3 -4 1 -8 -3
-8 -5 0 -10 -14 -11 -31 -1 -18 -6 -37 -9 -43 -4 -6 -8 -17 -9 -26 -5 -29 -10
-45 -18 -59 -6 -9 -5 -12 2 -7 7 4 6 -4 -3 -20 -7 -14 -11 -37 -9 -50 2 -13 1
-24 -4 -24 -4 0 -8 -21 -9 -47 -1 -31 -7 -50 -18 -55 -8 -5 -13 -13 -10 -19 4
-5 3 -15 -2 -21 -10 -17 -12 -29 -18 -108 -3 -36 -6 -72 -6 -80 -1 -8 -9 -24
-18 -34 -10 -12 -11 -16 -2 -11 9 5 8 0 -3 -17 -9 -14 -13 -28 -9 -31 3 -4 1
-7 -5 -7 -7 0 -11 -3 -11 -7 4 -23 -2 -43 -11 -38 -6 3 -7 -1 -4 -9 3 -9 1
-16 -5 -16 -6 0 -10 -3 -9 -7 1 -5 -4 -19 -12 -33 -16 -29 -17 -32 -28 -85 -4
-22 -4 -60 -1 -85 10 -66 51 -170 67 -170 7 0 10 -4 7 -10 -3 -5 -1 -10 4 -10
6 0 11 -7 11 -16 0 -8 5 -12 10 -9 6 3 10 1 10 -5 0 -6 5 -8 10 -5 6 3 10 -1
10 -10 0 -9 5 -13 10 -10 6 3 10 0 10 -7 0 -11 2 -10 9 0 7 11 9 11 14 -2 4
-9 14 -16 24 -16 21 -1 55 -24 47 -32 -3 -4 1 -6 8 -5 36 1 59 -4 53 -12 -5
-9 20 -29 38 -29 5 0 12 -4 15 -8 4 -4 2 -4 -5 0 -6 3 -15 1 -19 -6 -4 -7 -4
-10 1 -6 4 4 17 2 29 -4 25 -14 57 -18 50 -6 -3 4 0 8 5 8 6 0 11 -4 11 -8 0
-5 7 -9 15 -9 8 0 12 4 9 9 -3 4 0 8 5 8 6 0 11 -5 11 -11 0 -8 6 -7 17 2 9 8
14 9 10 2 -4 -7 1 -14 13 -18 11 -3 20 -13 20 -21 0 -8 7 -14 15 -14 8 0 29
-14 47 -30 17 -17 37 -30 45 -30 8 0 12 -4 9 -9 -3 -5 5 -12 19 -15 14 -4 25
-13 25 -22 0 -8 4 -13 9 -10 9 6 26 -22 23 -36 -1 -4 5 -5 13 -2 8 4 15 1 15
-7 0 -7 3 -9 6 -6 4 4 19 -2 33 -12 30 -20 62 -35 74 -33 4 1 7 -3 7 -9 0 -6
7 -8 16 -5 12 4 15 2 10 -9 -4 -12 0 -14 19 -11 17 3 22 1 18 -9 -3 -10 1 -13
16 -10 12 2 21 0 21 -4 0 -4 6 -9 13 -10 29 -6 637 -10 652 -5 9 4 14 13 10
22 -5 13 -3 13 12 1 11 -9 14 -10 9 -1 -6 11 5 17 27 13 4 0 7 4 7 10 0 5 4 8
9 4 5 -3 13 0 16 6 4 5 13 8 21 5 7 -3 19 0 27 7 7 7 23 18 35 25 18 10 22 10
22 0 1 -9 4 -9 13 2 12 15 30 23 58 24 9 0 15 6 12 12 -3 8 3 11 14 10 9 -2
24 3 31 11 7 7 22 13 33 13 11 0 17 4 14 10 -3 6 1 7 9 4 9 -3 16 -1 16 6 0 6
4 9 9 6 4 -3 19 3 31 14 12 11 27 17 31 14 5 -3 9 0 9 5 0 6 7 11 15 11 8 0
15 5 15 10 0 6 7 10 15 10 9 0 18 7 21 15 4 8 10 12 15 9 5 -3 9 0 9 6 0 6 5
8 10 5 6 -3 10 -1 10 5 0 6 5 8 10 5 6 -3 10 -1 10 5 0 6 5 8 10 5 6 -3 13 1
16 9 3 9 10 13 15 10 5 -3 12 2 15 10 3 9 10 13 15 10 5 -3 9 0 9 6 0 6 3 9 8
7 10 -7 32 19 24 29 -4 5 0 4 7 -3 12 -10 24 -2 67 42 29 30 57 55 64 55 6 0
8 4 5 10 -3 5 -2 10 4 10 6 0 20 10 32 23 12 12 19 15 15 7 -5 -9 -2 -8 7 3 8
9 17 17 21 17 14 0 35 28 28 35 -4 5 1 5 11 2 11 -4 17 -1 17 8 0 8 6 15 14
15 8 0 16 7 20 15 3 8 11 15 18 15 8 0 22 9 31 21 10 11 25 18 32 15 8 -3 14
-2 14 2 -4 22 3 34 15 29 8 -3 13 1 12 11 -1 10 8 18 22 20 12 2 22 8 22 13 0
5 9 9 21 9 11 0 17 4 14 10 -3 5 6 15 20 22 15 6 24 17 21 25 -3 7 -2 12 2 11
14 -3 61 21 82 42 11 11 20 15 20 8 0 -7 7 -2 16 10 8 12 20 20 25 16 5 -3 8
-2 7 3 -2 4 0 9 5 10 4 2 17 12 29 22 11 11 24 18 28 16 5 -3 11 3 14 12 6 14
9 15 15 4 7 -10 10 -9 16 8 3 11 11 21 16 21 6 0 7 -6 4 -12 -4 -7 0 -6 7 3 7
9 28 20 46 23 17 4 32 12 32 17 0 6 4 8 9 5 5 -3 12 1 15 10 5 14 9 14 23 3 9
-8 14 -9 10 -3 -7 12 24 27 55 27 10 0 15 4 12 8 -3 5 0 9 6 9 6 0 8 6 5 13
-4 6 0 4 8 -6 14 -17 15 -18 19 -1 2 12 14 19 33 21 49 6 90 11 95 13 3 1 8 2
12 1 4 0 4 7 1 17 -6 14 -4 15 9 4 13 -10 18 -10 24 -1 5 8 3 9 -6 4 -8 -5
-11 -4 -6 3 4 6 14 8 22 5 9 -3 20 0 25 8 6 10 9 10 9 2 0 -7 5 -13 11 -13 5
0 8 4 4 9 -3 5 4 13 16 16 14 5 25 2 30 -6 7 -11 9 -11 9 1 0 14 12 18 58 22
6 1 12 5 12 10 0 4 9 8 20 8 11 0 20 5 20 11 0 6 6 9 14 6 8 -3 17 1 20 10 4
8 13 13 21 9 8 -3 15 -1 15 5 0 6 5 7 10 4 6 -3 10 -1 10 6 0 8 5 7 17 -2 11
-10 14 -10 9 -1 -4 6 -2 13 3 13 21 3 26 4 40 13 10 7 12 5 7 -5 -4 -8 -1 -6
7 3 8 10 17 15 20 11 4 -3 7 -1 7 6 0 7 5 9 10 6 6 -3 10 -2 10 4 0 6 7 8 15
4 10 -3 15 0 13 8 -2 9 4 13 15 11 10 -2 17 3 17 14 0 10 3 15 6 12 3 -4 24
13 47 37 22 24 44 42 48 39 5 -2 13 5 19 16 8 14 17 19 28 15 9 -3 13 -3 10 1
-9 8 9 44 22 44 5 0 7 -8 4 -17 -5 -15 -4 -15 4 -3 7 8 7 19 2 25 -6 7 -1 11
13 12 12 1 23 7 25 13 2 5 8 8 13 4 5 -3 9 1 9 8 0 9 3 9 10 -2 6 -10 10 -11
10 -2 0 6 5 12 11 12 5 0 8 -4 5 -8 -3 -5 1 -9 8 -9 8 0 12 6 9 14 -4 11 0 11
22 3 22 -9 31 -7 47 7 18 16 19 16 13 -3 -6 -17 -5 -17 7 -3 7 9 19 14 27 11
7 -2 17 2 22 9 7 12 9 12 9 0 0 -11 3 -11 15 -1 12 10 15 10 15 -1 0 -12 2
-12 9 0 6 10 10 10 16 1 6 -9 10 -9 16 1 8 12 11 11 19 -1 5 -8 10 -10 10 -4
0 6 7 11 15 11 8 0 12 -4 9 -9 -9 -14 14 -9 30 8 19 18 22 4 4 -15 -11 -11 -9
-12 8 -3 12 6 24 8 28 5 3 -3 6 -1 6 6 0 7 4 10 9 7 4 -3 8 28 7 69 -1 53 -5
75 -13 75 -7 0 -13 5 -13 11 0 5 -4 7 -10 4 -5 -3 -10 -2 -10 4 0 6 -7 7 -17
4 -12 -5 -14 -3 -8 7 6 10 3 12 -13 8 -14 -4 -22 -1 -22 6 0 6 -14 13 -31 14
-17 1 -39 7 -49 12 -13 7 -20 6 -23 -3 -4 -9 -6 -9 -6 1 -1 6 -6 12 -12 12 -5
0 -7 -6 -3 -12 4 -7 -2 -5 -13 5 -12 10 -23 14 -24 9 -3 -5 -18 -5 -37 0 -18
5 -30 13 -27 18 4 6 2 10 -2 10 -10 0 -15 47 -17 143 0 31 -4 57 -9 57 -4 0
-5 5 -1 12 4 6 -1 17 -11 25 -11 7 -13 13 -6 13 8 0 7 6 -5 17 -11 12 -13 18
-5 21 9 3 9 7 0 18 -6 8 -8 14 -5 14 4 0 2 9 -4 20 -7 13 -7 20 -1 20 7 0 7 9
1 25 -5 14 -7 25 -4 25 4 0 1 6 -5 14 -9 11 -9 16 0 22 8 5 9 3 4 -6 -5 -8 -4
-11 3 -6 6 4 9 13 6 21 -4 8 -9 13 -13 10 -12 -7 -6 32 7 48 7 7 8 18 4 22 -4
5 -2 5 5 1 6 -3 15 -1 18 5 4 5 13 8 21 5 8 -3 11 0 7 10 -3 9 2 14 16 14 12
0 21 5 21 11 0 5 5 7 10 4 6 -3 10 -1 10 6 0 7 3 10 6 6 3 -3 16 4 29 16 12
12 37 33 55 47 18 14 39 32 48 40 8 8 19 15 24 15 5 0 13 7 18 15 5 8 10 11
10 6 0 -5 7 -3 15 4 8 7 15 9 15 4 0 -4 7 1 16 12 8 10 13 12 9 4 -4 -9 0 -7
9 4 8 10 19 15 24 12 5 -3 14 6 21 20 6 14 15 23 20 19 5 -3 15 1 23 8 7 8 19
12 26 9 9 -3 12 42 12 197 0 127 -4 201 -10 201 -5 0 -10 6 -10 14 0 8 -7 16
-15 20 -8 3 -15 0 -15 -7 0 -7 -3 -8 -8 -2 -7 10 -27 17 -49 18 -7 0 -13 4
-13 9 0 4 -3 7 -7 7 -20 -3 -33 2 -33 14 0 9 -10 12 -31 9 -18 -3 -29 -1 -26
5 3 5 -3 9 -13 9 -10 0 -16 -4 -14 -8 5 -8 -40 9 -61 22 -12 8 -56 -13 -56
-26 -1 -5 -3 -11 -6 -14 -2 -3 -3 0 -1 5 2 6 -2 10 -7 10 -6 0 -9 -4 -7 -10 2
-5 0 -6 -4 -2 -11 11 -14 38 -3 31 5 -3 9 -1 9 3 0 5 -10 14 -22 22 -22 13
-22 13 -8 -4 14 -17 13 -18 -2 -12 -10 3 -20 2 -23 -3 -3 -5 0 -10 7 -13 7 -2
6 -3 -2 -2 -8 0 -14 7 -13 13 2 7 -6 13 -17 13 -28 2 -33 3 -50 13 -12 7 -13
6 -2 -5 22 -24 12 -31 -15 -9 -26 20 -28 20 -40 4 -8 -11 -13 -13 -13 -5 0 7
-5 9 -10 6 -6 -4 -7 -11 -4 -17 5 -7 2 -8 -7 -2 -19 12 -32 12 -42 -1 -5 -6
-7 -4 -4 5 2 8 14 14 25 14 12 -1 22 3 22 7 0 9 -42 5 -59 -5 -5 -4 -12 0 -14
6 -3 7 -6 4 -6 -7 -1 -15 -4 -16 -13 -7 -17 17 -28 15 -22 -5 5 -15 4 -15 -6
1 -10 15 -14 16 -21 5 -6 -9 -9 -10 -9 -2 0 6 -9 10 -20 8 -11 -2 -18 0 -15 6
4 5 -1 9 -10 9 -9 0 -13 -4 -10 -10 3 -5 1 -10 -5 -10 -6 0 -9 8 -6 18 4 13 1
19 -9 19 -9 0 -14 -6 -11 -13 3 -8 0 -11 -10 -7 -8 3 -13 11 -10 18 3 8 -2 11
-15 8 -11 -3 -19 0 -19 6 0 9 -5 9 -20 1 -16 -9 -19 -8 -13 6 4 11 2 15 -4 11
-10 -6 -60 71 -55 86 1 4 -3 7 -8 7 -6 0 -10 9 -10 20 0 11 -4 20 -10 20 -5 0
-10 9 -10 20 0 11 -4 20 -10 20 -5 0 -10 9 -10 20 0 11 -5 20 -11 20 -5 0 -7
5 -4 10 3 6 1 10 -5 10 -6 0 -8 5 -5 10 3 6 1 10 -4 10 -6 0 -11 7 -11 15 0 8
-4 15 -10 15 -5 0 -7 7 -4 15 4 8 1 15 -6 15 -6 0 -8 5 -5 10 3 6 2 10 -3 10
-10 0 -25 37 -23 53 1 5 -3 5 -9 2 -7 -4 -14 2 -17 14 -3 12 -9 21 -14 21 -5
0 -9 5 -9 11 0 6 -7 17 -15 26 -8 8 -13 19 -10 24 4 5 2 9 -2 9 -13 0 -13 38
0 48 7 5 20 12 29 15 13 4 15 2 11 -10 -5 -12 -3 -14 8 -7 26 16 55 19 84 9
16 -5 17 -5 5 4 -8 5 -11 13 -7 17 3 4 14 1 24 -7 11 -9 14 -10 9 -1 -8 14
-10 14 67 15 31 0 57 4 57 8 0 4 13 4 30 -1 19 -5 32 -5 36 2 3 5 15 8 25 5
10 -3 19 -1 21 4 2 6 17 12 33 14 17 2 31 4 33 6 1 1 5 2 10 3 4 1 13 5 20 9
7 5 12 4 12 -3 0 -8 6 -7 21 1 12 6 30 9 40 6 10 -3 22 -1 25 4 3 6 11 5 20
-2 12 -10 13 -9 8 5 -5 12 0 16 17 15 45 0 88 8 104 21 13 11 15 10 9 -6 -5
-18 -5 -18 10 0 9 11 16 16 16 10 0 -5 3 -5 8 1 4 6 18 16 31 23 19 11 22 11
15 0 -4 -7 2 -4 14 6 12 11 22 25 22 33 0 7 6 13 13 13 8 0 7 4 -3 10 -8 5
-11 10 -6 10 5 0 2 8 -5 17 -8 9 -9 14 -3 10 7 -4 15 0 18 9 4 9 2 13 -5 8 -8
-5 -10 3 -7 24 3 23 1 29 -11 24 -9 -4 -12 -1 -7 7 5 8 1 14 -13 18 -12 3 -18
10 -14 17 4 6 -2 4 -13 -4 -10 -8 -16 -11 -12 -6 9 11 -16 36 -42 41 -11 2
-25 7 -31 11 -6 3 -16 0 -21 -7 -7 -10 -8 -8 -4 7 4 14 2 21 -8 21 -9 0 -13
-4 -10 -8 2 -4 -1 -11 -8 -15 -7 -4 -10 -4 -6 1 4 4 3 14 -3 22 -9 11 -14 11
-23 0 -6 -7 -10 -10 -9 -8 5 8 -49 31 -58 25 -5 -3 -12 2 -15 11 -6 13 -8 14
-15 3 -5 -7 -9 -8 -9 -2 0 6 -12 12 -27 13 -79 5 -92 7 -99 14 -4 4 -12 7 -18
7 -6 0 -4 -5 4 -10 12 -8 10 -9 -8 -7 -12 2 -29 12 -37 23 -15 19 -15 19 -9
-1 5 -19 5 -19 -9 -2 -17 20 -37 23 -37 5 0 -10 -2 -10 -8 -1 -8 13 -92 20
-109 10 -6 -4 -14 -1 -16 5 -4 10 -8 9 -16 -2 -10 -13 -11 -13 -11 0 0 9 -3
11 -8 5 -8 -11 -63 -15 -56 -4 7 12 -67 1 -84 -13 -16 -12 -16 -11 -2 6 14 18
13 19 -3 13 -10 -4 -25 -7 -33 -7 -9 0 -12 -5 -8 -12 4 -7 3 -8 -5 -4 -9 6 -9
11 0 22 10 12 9 13 -5 8 -9 -3 -16 -13 -16 -22 0 -11 -5 -9 -20 8 -11 13 -20
19 -20 14z m-395 -44 c3 -5 1 -10 -4 -10 -6 0 -11 5 -11 10 0 6 2 10 4 10 3 0
8 -4 11 -10z m1425 -1118 c0 -4 -9 -8 -21 -9 -17 -2 -18 1 -9 12 12 14 30 12
30 -3z m-4182 -2833 c-3 -8 -7 -3 -11 10 -4 17 -3 21 5 13 5 -5 8 -16 6 -23z"/>
<path d="M4165 3236 c11 -8 28 -12 39 -10 24 4 30 10 17 19 -6 3 -11 1 -11 -5
0 -6 -5 -8 -12 -3 -7 4 -22 9 -33 11 -19 3 -19 2 0 -12z"/>
<path d="M4250 3240 c-9 -6 -10 -10 -3 -10 6 0 15 5 18 10 8 12 4 12 -15 0z"/>
<path d="M190 3209 c0 -5 5 -7 10 -4 6 3 10 8 10 11 0 2 -4 4 -10 4 -5 0 -10
-5 -10 -11z"/>
<path d="M4455 2360 c-3 -5 -1 -10 4 -10 6 0 11 5 11 10 0 6 -2 10 -4 10 -3 0
-8 -4 -11 -10z"/>
<path d="M355 1920 c3 -5 8 -10 11 -10 2 0 4 5 4 10 0 6 -5 10 -11 10 -5 0 -7
-4 -4 -10z"/>
</g>
</svg>
